<svg width="109" height="109" viewBox="0 0 109 109" fill="none" xmlns="http://www.w3.org/2000/svg">
<rect x="0.5" y="0.5" width="108" height="108" rx="54" fill="#F6F8FA"/>
<path d="M78.8563 29.8041V63.3506H17.9629V29.8041C17.9629 27.0078 20.2284 24.7422 23.0248 24.7422H73.7945C76.5909 24.7422 78.8563 27.0078 78.8563 29.8041Z" fill="white" stroke="#868C98" stroke-linecap="round" stroke-linejoin="round"/>
<path d="M85.1788 29.8041V67.5782C85.1788 70.3745 82.9133 72.6399 80.117 72.6399H73.7944C76.5908 72.6399 78.8562 70.3745 78.8562 67.5782V29.8041C78.8562 27.0078 76.5908 24.7422 73.7944 24.7422H80.117C82.9133 24.7422 85.1788 27.0078 85.1788 29.8041Z" fill="#CDD0D5" stroke="#868C98" stroke-linecap="round" stroke-linejoin="round"/>
<path d="M78.8538 63.3477V67.5777C78.8538 70.3775 76.594 72.6378 73.7937 72.6378H23.024C20.224 72.6378 17.9639 70.3775 17.9639 67.5777V63.3477H78.8538Z" fill="#E2E4E9" stroke="#868C98" stroke-linecap="round" stroke-linejoin="round"/>
<path d="M33.2734 84.2578H36.4134H39.8034" fill="white"/>
<path d="M33.2734 84.2578H36.4134H39.8034" stroke="#868C98" stroke-linecap="round" stroke-linejoin="round"/>
<path d="M56.8437 84.2566H39.8037C42.8935 84.2566 45.0635 81.2066 44.0537 78.2866L42.1135 72.6367H59.1535L61.0937 78.2866C62.1035 81.2065 59.9335 84.2566 56.8437 84.2566Z" fill="white" stroke="#868C98" stroke-linecap="round" stroke-linejoin="round"/>
<path d="M39.8036 84.2578H36.4136" stroke="#868C98" stroke-linecap="round" stroke-linejoin="round"/>
<path d="M72.5982 79.0586H72.2651C65.3339 79.0586 59.7066 73.4313 59.7066 66.5001V60.0801H85.1567V66.5001C85.1567 73.4313 79.5294 79.0586 72.5982 79.0586Z" fill="white" stroke="#868C98" stroke-linecap="round" stroke-linejoin="round"/>
<path d="M83.0347 73.8464H85.9177C88.7448 73.8464 91.0365 71.5546 91.0365 68.7276C91.0365 66.4154 89.5034 64.4612 87.3983 63.8262" stroke="#868C98" stroke-linecap="round" stroke-linejoin="round"/>
<path d="M85.4947 84.2578H59.3686C57.5579 84.2578 56.0879 82.7878 56.0879 80.9771H88.7754C88.7754 82.7878 87.3054 84.2578 85.4947 84.2578Z" fill="#CDD0D5" stroke="#868C98" stroke-linecap="round" stroke-linejoin="round"/>
<path d="M31.2783 46.5742H25.3335C24.7812 46.5742 24.3335 47.0219 24.3335 47.5742V53.519C24.3335 54.0713 24.7812 54.519 25.3335 54.519H31.2783C31.8306 54.519 32.2783 54.0713 32.2783 53.519V47.5742C32.2783 47.0219 31.8306 46.5742 31.2783 46.5742Z" fill="#CDD0D5"/>
<path d="M52.9253 31.7676H46.9805C46.4282 31.7676 45.9805 32.2153 45.9805 32.7676V38.7124C45.9805 39.2647 46.4282 39.7124 46.9805 39.7124H52.9253C53.4776 39.7124 53.9253 39.2647 53.9253 38.7124V32.7676C53.9253 32.2153 53.4776 31.7676 52.9253 31.7676Z" fill="#E2E4E9"/>
<path d="M72.6089 48.1641H38.8633C38.311 48.1641 37.8633 48.6118 37.8633 49.1641V51.0122C37.8633 51.5644 38.311 52.0122 38.8633 52.0122H72.6089C73.1612 52.0122 73.6089 51.5644 73.6089 51.0122V49.1641C73.6089 48.6118 73.1612 48.1641 72.6089 48.1641Z" fill="#CDD0D5"/>
<path d="M73.1089 33.9922H60.5103C59.958 33.9922 59.5103 34.4399 59.5103 34.9922V36.8403C59.5103 37.3926 59.958 37.8403 60.5103 37.8403H73.1089C73.6611 37.8403 74.1089 37.3926 74.1089 36.8403V34.9922C74.1089 34.4399 73.6611 33.9922 73.1089 33.9922Z" fill="#CDD0D5"/>
<path d="M24.6309 35.7414C24.6309 35.7414 27.8352 39.5394 31.4076 39.5394C34.98 39.5394 38.0111 35.7414 38.0111 35.7414C38.0111 35.7414 34.98 31.9434 31.4076 31.9434C27.8352 31.9434 24.6309 35.7414 24.6309 35.7414Z" fill="white" stroke="#868C98" stroke-linecap="round" stroke-linejoin="round"/>
<path d="M31.3601 38.3784C32.7952 38.3784 33.9585 37.2151 33.9585 35.78C33.9585 34.345 32.7952 33.1816 31.3601 33.1816C29.9251 33.1816 28.7617 34.345 28.7617 35.78C28.7617 37.2151 29.9251 38.3784 31.3601 38.3784Z" fill="#868C98" stroke="#868C98" stroke-linecap="round" stroke-linejoin="round"/>
<path d="M33.1025 2.68953C33.1025 2.68953 29.1823 7.28854 33.7522 11.2109C29.1822 7.28846 25.2309 11.8606 25.2309 11.8606C25.2309 11.8606 29.1511 7.26163 24.5811 3.33918C29.1511 7.26163 33.1025 2.68953 33.1025 2.68953Z" fill="white" stroke="#868C98" stroke-linecap="round" stroke-linejoin="round"/>
<path d="M84.7942 101.66C84.7942 101.66 78.7702 102.14 79.2281 108.145C78.7702 102.14 72.7432 102.579 72.7432 102.579C72.7432 102.579 78.7672 102.099 78.3093 96.0938C78.7672 102.099 84.7942 101.66 84.7942 101.66Z" fill="white" stroke="#868C98" stroke-linecap="round" stroke-linejoin="round"/>
</svg>
